<svg id="Layer_1" data-name="Layer 1" xmlns="http://www.w3.org/2000/svg" viewBox="0 0 5193.56 3865.89"><defs><style>.cls-1{fill:#963;}.cls-2{fill:#fff;}.cls-3{fill:none;stroke:#000;stroke-miterlimit:10;stroke-width:6px;}</style></defs><ellipse cx="3780.4" cy="1756.7" rx="114.01" ry="8.77"/><ellipse class="cls-1" cx="4064.58" cy="4000.45" rx="1928.96" ry="2152.7" transform="translate(-1814.78 5461.86) rotate(-82.77)"/><path d="M6376.28,3741.91l-125.22,130.84c60.77-58.92,147.7-89.8,232-82.42L6392,3755.49" transform="translate(-1399.28 -2067.5)"/><path class="cls-2" d="M2501,3297a4293.53,4293.53,0,0,1,425-103c97.82-18.5,316.79-59.9,529-66,185.28-5.32,498.16,12.46,887,170a1081.44,1081.44,0,0,1,180-107c69.61-32.7,180.4-84.75,328-94,201.9-12.66,364.33,61.54,431,92,45.33,20.71,61.42,32.35,144,70,40.57,18.49,128.77,58.47,238,97,152.26,53.71,281.49,99.29,452,106a1089,1089,0,0,0,196-10c-10.7,16.47-45.91,75.08-30.38,144.62,11.49,51.45,45.73,80.82,75.55,110.07,51.43,50.46,117.89,85.59,189.35,95.55-520.43,238.09-880.37,791.74-886.77,1364-138-136.37-266.88-232.93-365.07-298.47-100.9-67.34-212.82-140.95-338.68-171.78-15.87-3.89-58-13.47-133-32-77.4-19.12-101.79-26-164.33-41.29-131.93-32.21-111.73-23.42-153.25-35.55-189.6-55.41-202.43-92.57-333.25-105.24-49.65-4.81-187.6-20.66-333.25,35.08-61.47,23.52-62.67,36-140.92,64-98.07,35.05-142.84,32.07-155,31-14.34-1.27-33.17-4.29-72.4-7.31-37.77-2.9-65.58-3.57-69.6-3.69-116.75-3.54-281.19-84-281.19-84-82.23-40.24-213-59.67-473.56-105.24-218.3-38.18-403.6-72.17-631.41-52.61-259,22.23-464.07,97.53-596.33,157.85a1011.77,1011.77,0,0,0,70.15-105.24c29.28-50.47,46-89.42,52.62-105.23,32.85-79,49.28-118.5,35.08-157.86-5.08-14.08-20-45.23-70.16-70.15C1687.38,3932.71,1830.4,3809.3,1930,3721c83.75-74.25,138.4-125.06,227-194A2869.3,2869.3,0,0,1,2501,3297Z" transform="translate(-1399.28 -2067.5)"/><path class="cls-3" d="M4308.89,3321.46c339.3-255.52,583.39-238.8,673.58-224.53,54.28,8.6,111.43,25.58,163.53,41.07,217.49,64.65,256.3,115.58,470.44,201.22,140.84,56.32,293.8,116,498.56,122.78a1167.73,1167.73,0,0,0,196-10" transform="translate(-1399.28 -2067.5)"/><path class="cls-3" d="M3560.46,4182.15c7.83-22.46,20-55.2,37.42-93.55,64.55-142.38,154-259.8,392.93-486.48,87.86-83.38,200.7-186,336.79-299.37" transform="translate(-1399.28 -2067.5)"/><path class="cls-3" d="M5674.76,5155.1c3.9-140.35,32.26-485.6,267.49-834.47,226.62-336.09,521.14-491.51,649.34-550.11" transform="translate(-1399.28 -2067.5)"/><path class="cls-3" d="M3560.46,4144.73c31.39,25.86,69.33,57.37,112.27,93.55C3809,4353.16,3838.85,4383,3841.12,4425.39c1.08,20.16-3.15,60.35-56.13,112.26" transform="translate(-1399.28 -2067.5)"/><path class="cls-3" d="M3841.12,4518.94c192.54-57.25,334.27-43.63,430.35-18.71,100.47,26.06,150.58,64.37,318.08,112.26,132.3,37.84,230.22,50.87,261.95,56.14,148.61,24.66,395.16,136.08,824.16,519.65" transform="translate(-1399.28 -2067.5)"/><path class="cls-3" d="M1505.2,4061c16.55,11.7,40.38,32.48,53.22,65,14.86,37.65,8.34,77.58-18.71,149.68-21.52,57.4-59.76,137.91-131,224.53,351-132.75,634.29-148.84,828.73-138.41,528.82,28.35,855.22,157.12,855.23,157.12,110.2,41.33,254,111.31,449.05,93.55,128.63-11.71,231.31-56.41,299.37-93.55" transform="translate(-1399.28 -2067.5)"/><path class="cls-3" d="M4308.89,3284a2406,2406,0,0,0-505.19-131c-254.22-37.1-452.88-24.46-523.9-18.71-128.87,10.45-235.6,31.92-449.05,74.85-139.09,28-254.54,54.79-336.79,74.84-148.34,96.78-262.08,183.52-336.8,243.24-146.1,116.77-211.4,184.87-392.92,336.79-119.11,99.69-218.3,176.91-280.66,224.53a1624.68,1624.68,0,0,1,262-112.27c295.2-96.83,546.26-84.84,654.87-74.84,229.91,21.17,404.15,51,580,168.4,133.9,89.39,136.67,152.73,273.59,203.63,99.91,37.15,251.83,60.45,303.85-7,35.65-46.26-8.16-92.95,21.3-159.17,48.07-108.05,236.73-126,299.37-131,315.12-24.86,570.88,114.8,961.47,284.64,147,63.91,367.94,156,646.6,256" transform="translate(-1399.28 -2067.5)"/><path class="cls-3" d="M5487.66,4500.23A2291.84,2291.84,0,0,1,5674.76,4126c203.87-328.61,452.93-543.28,636.17-673.59-37.93,121.64,4.17,245.09,93.55,299.38,79.73,48.42,168.27,24.3,187.11,18.71" transform="translate(-1399.28 -2067.5)"/></svg>